<svg height="140" viewBox="0 0 740 1009" fill="none" xmlns="http://www.w3.org/2000/svg">
<path d="M258.927 910.117C253.827 907.771 248.268 906.598 242.25 906.598C236.742 906.598 232.611 907.771 229.857 910.117C227.103 912.361 225.726 915.268 225.726 918.838C225.726 922.408 226.899 925.162 229.245 927.1C231.591 928.936 235.722 930.721 241.638 932.455L246.228 933.832C252.042 935.566 256.479 938.116 259.539 941.482C262.599 944.848 264.129 948.979 264.129 953.875C264.129 956.731 263.568 959.434 262.446 961.984C261.324 964.432 259.692 966.574 257.55 968.41C255.408 970.246 252.705 971.674 249.441 972.694C246.279 973.714 242.607 974.224 238.425 974.224C233.835 974.224 229.806 973.816 226.338 973C222.87 972.286 219.81 971.317 217.158 970.093L219.3 963.82C221.952 965.146 224.706 966.166 227.562 966.88C230.418 967.492 233.784 967.798 237.66 967.798C243.474 967.798 247.962 966.676 251.124 964.432C254.286 962.188 255.867 958.975 255.867 954.793C255.867 951.529 254.694 948.724 252.348 946.378C250.104 943.93 246.075 941.788 240.261 939.952L235.365 938.422C223.431 934.648 217.464 928.375 217.464 919.603C217.464 916.747 218.025 914.146 219.147 911.8C220.371 909.352 222.003 907.312 224.043 905.68C226.185 903.946 228.684 902.62 231.54 901.702C234.498 900.682 237.762 900.172 241.332 900.172C244.596 900.172 247.962 900.427 251.43 900.937C254.898 901.447 258.06 902.416 260.916 903.844L258.927 910.117ZM318.984 907.21H294.81V954.334C294.81 959.128 295.881 962.392 298.023 964.126C300.165 965.758 303.123 966.574 306.897 966.574C309.855 966.574 312.609 966.319 315.159 965.809C317.709 965.197 319.851 964.585 321.585 963.973L322.809 969.94C320.769 970.756 318.27 971.47 315.312 972.082C312.354 972.694 309.09 973 305.52 973C299.4 973 294.759 971.572 291.597 968.716C288.435 965.758 286.854 961.321 286.854 955.405V907.21H273.849V901.09H286.854V878.14H294.81V901.09H318.984V907.21ZM335.569 907.363C340.363 904.813 344.749 902.977 348.727 901.855C352.807 900.733 357.142 900.172 361.732 900.172C364.996 900.172 368.056 900.631 370.912 901.549C373.87 902.467 376.42 903.946 378.562 905.986C380.806 908.026 382.54 910.729 383.764 914.095C385.09 917.359 385.753 921.388 385.753 926.182V973H380.245L378.562 963.514H378.256C375.298 967.084 371.83 969.787 367.852 971.623C363.874 973.357 359.437 974.224 354.541 974.224C351.175 974.224 348.064 973.765 345.208 972.847C342.352 971.827 339.853 970.399 337.711 968.563C335.671 966.727 334.039 964.534 332.815 961.984C331.693 959.332 331.132 956.425 331.132 953.263C331.132 949.489 331.897 946.174 333.427 943.318C334.957 940.462 337.099 938.116 339.853 936.28C342.607 934.342 345.871 932.914 349.645 931.996C353.521 931.078 357.805 930.619 362.497 930.619H377.797V925.876C377.797 918.94 376.267 913.993 373.207 911.035C370.147 908.077 366.169 906.598 361.273 906.598C358.315 906.598 354.898 907.057 351.022 907.975C347.146 908.893 343.015 910.576 338.629 913.024L335.569 907.363ZM377.797 936.892L365.098 937.045C360.508 937.147 356.581 937.657 353.317 938.575C350.053 939.391 347.35 940.513 345.208 941.941C343.168 943.267 341.689 944.899 340.771 946.837C339.853 948.673 339.394 950.662 339.394 952.804C339.394 955.456 339.853 957.751 340.771 959.689C341.689 961.525 342.913 963.055 344.443 964.279C345.973 965.503 347.758 966.421 349.798 967.033C351.94 967.543 354.184 967.798 356.53 967.798C358.366 967.798 360.253 967.594 362.191 967.186C364.129 966.676 366.016 965.962 367.852 965.044C369.79 964.024 371.626 962.8 373.36 961.372C375.094 959.842 376.573 958.006 377.797 955.864V936.892ZM438.23 968.41C441.494 968.41 444.452 968.053 447.104 967.339C449.756 966.625 452.255 965.707 454.601 964.585L456.284 970.093C453.53 971.521 450.623 972.541 447.563 973.153C444.605 973.867 441.188 974.224 437.312 974.224C432.518 974.224 427.979 973.459 423.695 971.929C419.513 970.399 415.79 968.104 412.526 965.044C409.364 961.984 406.814 958.159 404.876 953.569C403.04 948.877 402.122 943.42 402.122 937.198C402.122 931.486 402.989 926.335 404.723 921.745C406.457 917.155 408.905 913.279 412.067 910.117C415.229 906.853 418.901 904.405 423.083 902.773C427.367 901.039 432.059 900.172 437.159 900.172C440.321 900.172 443.381 900.427 446.339 900.937C449.297 901.345 452.51 902.365 455.978 903.997L454.142 910.27C451.388 908.842 448.736 907.873 446.186 907.363C443.738 906.853 441.188 906.598 438.536 906.598C434.354 906.598 430.529 907.312 427.061 908.74C423.593 910.168 420.635 912.208 418.187 914.86C415.739 917.41 413.801 920.572 412.373 924.346C411.047 928.018 410.384 932.149 410.384 936.739C410.384 942.859 411.2 947.959 412.832 952.039C414.464 956.017 416.555 959.23 419.105 961.678C421.757 964.126 424.715 965.86 427.979 966.88C431.345 967.9 434.762 968.41 438.23 968.41ZM481.339 946.684V973H473.383V864.37H481.339V937.504L517.447 901.09H527.392L497.098 931.384L528.769 973H519.283L491.896 936.127L481.339 946.684Z" fill="#777777"/>
<path d="M0 370C0 70 173 0 370 0C567 0 740 70 740 370C740 670 567 740 370 740C173 740 0 670 0 370Z" fill="#FAFA00"/>
<path d="M446.379 493.768V303.387C446.379 288.803 443.417 276.157 437.492 265.447C431.796 254.51 423.137 246.079 411.516 240.154C399.895 234.23 385.539 231.268 368.449 231.268C352.499 231.268 338.485 234.002 326.408 239.471C314.559 244.939 305.217 252.117 298.381 261.004C291.773 269.891 288.469 279.461 288.469 289.715H225.236C225.236 276.499 228.654 263.396 235.49 250.408C242.326 237.42 252.124 225.685 264.885 215.203C277.873 204.493 293.368 196.062 311.369 189.91C329.598 183.53 349.878 180.34 372.209 180.34C399.097 180.34 422.795 184.897 443.303 194.012C464.038 203.126 480.217 216.912 491.838 235.369C503.687 253.598 509.611 276.499 509.611 304.07V476.336C509.611 488.641 510.637 501.743 512.688 515.643C514.966 529.542 518.27 541.505 522.6 551.531L525 557H456.633C453.443 549.708 450.936 540.024 449.113 527.947C447.29 515.643 446.379 504.249 446.379 493.768ZM457.316 332.781L458 377.215H394.084C376.083 377.215 360.018 378.696 345.891 381.658C331.763 384.393 319.914 388.608 310.344 394.305C300.773 400.001 293.482 407.179 288.469 415.838C283.456 424.269 280.949 434.181 280.949 445.574C280.949 457.195 283.57 467.791 288.811 477.361C294.051 486.932 301.913 494.565 312.395 500.262C323.104 505.73 336.206 508.465 351.701 508.465C371.07 508.465 388.16 504.363 402.971 496.16C417.782 487.957 429.517 477.931 438.176 466.082C447.062 454.233 451.848 442.726 452.531 431.561L479.533 461.98C477.938 471.551 473.609 482.146 466.545 493.768C459.481 505.389 450.025 516.554 438.176 527.264C426.555 537.745 412.655 546.518 396.477 553.582C380.526 560.418 362.525 563.836 342.473 563.836C317.408 563.836 295.419 558.937 276.506 549.139C257.821 539.34 243.238 526.238 232.756 509.832C222.502 493.198 217.375 474.627 217.375 454.119C217.375 434.295 221.249 416.863 228.996 401.824C236.743 386.557 247.909 373.911 262.492 363.885C277.076 353.631 294.621 345.883 315.129 340.643C335.637 335.402 358.537 332.781 383.83 332.781H457.316Z" fill="white"/>
</svg>
